<svg width="638" height="290" viewBox="0 0 638 290" fill="none" xmlns="http://www.w3.org/2000/svg">
<g clip-path="url(#clip0_3179_34603)">
<path d="M22.958 0C51.5653 27.5609 92.1862 46.6188 137.166 53.667C140.603 54.2152 144.067 54.7005 147.558 55.1221C150.422 55.468 153.306 55.7707 156.209 56.0312C189.464 59.0163 235.108 58.7261 275.471 50.6182V83.8037C260.879 86.363 244.61 87.3215 229.936 88.1855C224.106 88.5289 218.527 88.8574 213.405 89.2656L213.392 89.0947C193.531 90.6776 174.455 90.7103 156.049 89.2061C157.036 95.8152 158.083 102.726 159.112 109.949C161.876 129.335 164.412 150.326 164.667 170.854C165.169 211.237 156.853 254.902 118.004 279.916C97.2029 293.309 71.1354 291.028 52.3057 278.995C32.7185 266.478 19.9717 242.877 26.5068 213.982C32.0536 189.458 45.4059 172.109 63.9053 157.545C80.875 144.185 103.038 132.552 127.877 119.547C127.645 117.864 127.411 116.183 127.172 114.503C125.752 104.546 124.179 94.4427 122.775 84.7158C74.2251 75.5248 31.9519 54.4748 0 23.9531L22.958 0ZM350.969 105.407C366.526 105.407 380.545 108.998 393.024 116.007C405.504 123.016 415.249 132.761 422.6 144.898C429.951 157.036 433.541 170.884 433.541 186.27V264.056H403.794V236.952C398.192 245.912 390.842 253.124 381.741 258.585C371.484 264.739 359.687 267.987 346.182 267.987V268.158C331.308 268.158 317.974 264.397 306.178 257.046C294.553 249.695 285.322 239.779 278.483 227.471C271.645 215.162 268.396 201.485 268.396 186.44C268.397 171.396 271.987 158.233 279.338 145.753C286.689 133.444 296.433 123.7 308.913 116.349C321.393 108.997 335.412 105.407 350.969 105.407ZM504.666 235.709C504.666 236.513 505.202 237.318 505.738 237.854C506.543 238.659 507.348 238.659 508.152 238.659C509.225 238.659 510.298 238.391 510.834 237.854C511.37 237.318 512.175 235.709 512.175 235.709L556.959 111.278H589.676L540.064 244.291C537.383 252.068 533.092 258.236 527.729 262.259C522.097 266.013 515.393 268.158 508.152 268.158C500.912 268.158 494.475 266.281 488.844 262.259C483.212 257.968 479.19 252.068 476.24 244.291L426.896 111.278H459.882L504.666 235.709ZM275.342 136.277H254.075C252.844 136.208 251.614 136.18 250.383 136.18C249.952 136.18 249.526 136.186 249.103 136.197C239.441 136.459 231.669 139.708 225.937 146.096C219.953 152.763 216.876 161.823 216.876 173.106V264.226L216.705 264.396H185.42V172.08C185.42 159.43 187.813 148.147 192.6 138.231C197.386 128.316 204.225 120.452 213.456 114.811C222.688 109.169 233.971 106.263 247.477 106.263C248.022 106.263 248.564 106.269 249.103 106.28V106.263H275.342V136.277ZM631.496 264.278H598.357V111.278H631.496V264.278ZM131.652 154.014C111.587 164.625 95.938 173.388 83.8633 182.895C69.6994 194.046 61.5191 205.438 57.9766 221.1C54.6648 235.742 60.6706 246.052 69.6787 251.809C79.4441 258.049 91.8152 258.405 100.537 252.789C124.807 237.162 132.871 208.657 132.405 171.255C132.335 165.586 132.067 159.827 131.652 154.014ZM350.969 134.982C341.224 134.982 332.506 137.376 324.812 142.163C317.119 146.95 310.964 153.105 306.52 160.969C302.075 168.833 299.682 177.381 299.682 186.954C299.682 196.528 301.904 204.734 306.52 212.769C310.964 220.633 317.119 226.957 324.812 231.573C332.506 236.189 341.224 238.583 350.969 238.583C360.713 238.583 369.432 236.189 377.296 231.573C385.16 226.957 391.144 220.633 395.589 212.769C400.034 204.905 402.256 196.357 402.256 186.954C402.256 177.552 400.034 168.833 395.589 160.969C391.144 153.105 384.989 146.95 377.296 142.163C369.432 137.376 360.713 134.982 350.969 134.982ZM614.93 48.4775C627.582 48.4775 637.838 58.7339 637.838 71.3857C637.838 84.0376 627.582 94.2939 614.93 94.2939C602.278 94.2939 592.021 84.0376 592.021 71.3857C592.022 58.7339 602.278 48.4776 614.93 48.4775Z" fill="#573CD0"/>
</g>
<defs>
<clipPath id="clip0_3179_34603">
<rect width="637.838" height="289.028" fill="white"/>
</clipPath>
</defs>
</svg>
